<svg xmlns="http://www.w3.org/2000/svg" viewBox="0 0 32 32">
  <path fill="url(#apifox-gradient)" d="M27.46 20.852a7 7 0 0 1-.488.016h-.162a7.9 7.9 0 0 0 .198-2.858 7.75 7.75 0 0 1-3.146.81 8 8 0 0 0 .153-1.559c0-.563-.059-1.125-.177-1.675a7.8 7.8 0 0 1-2.65.976l-.006-.009a8 8 0 0 0 .15-1.54 8 8 0 0 0-.127-1.42 8.8 8.8 0 0 1-2.917 2.037 8.8 8.8 0 0 1-3.48.714 8.76 8.76 0 0 1-4.058-.99 7.8 7.8 0 0 0 1.617-.862 7.9 7.9 0 0 1-3.257-2.924 7.96 7.96 0 0 1-1.08-5.647 7.8 7.8 0 0 1 .982-2.628q.407-.687.944-1.279A15.364 15.364 0 0 0 1 16.001a15.36 15.36 0 0 0 1.862 7.358c.083-.74.27-1.466.556-2.154a14.66 14.66 0 0 0 4.262 5.76A14.54 14.54 0 0 0 14.15 30a7.9 7.9 0 0 1-1.005-1.74c1.264.413 2.58.639 3.907.672.118 0 .236.004.355.004a13.66 13.66 0 0 0 6.083-1.42 8 8 0 0 1-.904-.601 13.174 13.174 0 0 0 7.095-6.523 7.8 7.8 0 0 1-2.222.46"/>
  <path fill="url(#apifox-gradient)" d="M30.968 13.567a13.2 13.2 0 0 0-.57-2.96 5.2 5.2 0 0 1-.455.934 11.9 11.9 0 0 0-1.61-4.43A11.82 11.82 0 0 0 21.806 2a8.9 8.9 0 0 1 1.8 4.544l.015.173v.03l.012.172a7 7 0 0 1 .012.315v.208a8.9 8.9 0 0 1-1.583 5.082 8 8 0 0 1 .093 2.761c.5-.119.988-.288 1.455-.505q.52-.24 1.001-.554.099.343.165.7.14.74.14 1.493 0 .598-.09 1.19a7.8 7.8 0 0 0 3.007-.959 8 8 0 0 1 .124 1.406c0 .549-.056 1.096-.168 1.633a7.8 7.8 0 0 0 2.383-.48c.548-1.476.828-3.04.826-4.616q.009-.519-.03-1.026"/>
  <defs>
    <linearGradient id="apifox-gradient" x1="1" x2="28.933" y1="2" y2="31.929" gradientUnits="userSpaceOnUse">
      <stop offset=".01" stop-color="#ff4385"/>
      <stop offset=".276" stop-color="#ff4274"/>
      <stop offset=".724" stop-color="#ff5c65"/>
      <stop offset="1" stop-color="#ff5c35"/>
    </linearGradient>
  </defs>
</svg>
