<svg xmlns="http://www.w3.org/2000/svg" viewBox="0 0 64 64">
  <defs><linearGradient id="g" x1="8" y1="4" x2="56" y2="60" gradientUnits="userSpaceOnUse"><stop stop-color="#8467ff"/><stop offset="1" stop-color="#4d2ddd"/></linearGradient></defs>
  <rect width="64" height="64" rx="18" fill="url(#g)"/>
  <path d="M14 20c0-4 3-7 7-7h22c4 0 7 3 7 7v8c0 4-3 7-7 7H29l-9 7v-7c-3-.5-6-3.5-6-7v-8Z" fill="#fff"/>
  <path d="M28 40h15c4 0 7 3 7 7v4l-6-4H28c-3 0-6-2-7-5l7-2Z" fill="#fff" opacity=".67"/>
</svg>
