<svg xmlns="http://www.w3.org/2000/svg" viewBox="0 0 1200 630">
  <defs>
    <linearGradient id="bg" x1="85" y1="40" x2="1110" y2="600" gradientUnits="userSpaceOnUse"><stop stop-color="#171128"/><stop offset="1" stop-color="#08080e"/></linearGradient>
    <radialGradient id="glow" cx="0" cy="0" r="1" gradientTransform="translate(931 199) rotate(135) scale(452 418)" gradientUnits="userSpaceOnUse"><stop stop-color="#7759ff" stop-opacity=".55"/><stop offset="1" stop-color="#7759ff" stop-opacity="0"/></radialGradient>
  </defs>
  <rect width="1200" height="630" rx="34" fill="url(#bg)"/>
  <rect width="1200" height="630" rx="34" fill="url(#glow)"/>
  <g opacity=".11" stroke="#fff"><path d="M0 90h1200M0 180h1200M0 270h1200M0 360h1200M0 450h1200M0 540h1200"/><path d="M100 0v630M200 0v630M300 0v630M400 0v630M500 0v630M600 0v630M700 0v630M800 0v630M900 0v630M1000 0v630M1100 0v630"/></g>
  <rect x="88" y="88" width="66" height="66" rx="19" fill="#7558f6"/>
  <path d="M104 110c0-5 4-9 9-9h22c5 0 9 4 9 9v8c0 5-4 9-9 9h-14l-11 8v-8c-4-1-6-4-6-9v-8Z" fill="#fff"/>
  <text x="177" y="137" fill="#fff" font-family="Inter,Arial,sans-serif" font-size="38" font-weight="700">OpenIM Docs</text>
  <text x="88" y="285" fill="#fff" font-family="Inter,Arial,sans-serif" font-size="76" font-weight="750" letter-spacing="-3">Chat documentation,</text>
  <text x="88" y="375" fill="#fff" font-family="Inter,Arial,sans-serif" font-size="76" font-weight="750" letter-spacing="-3">ready for your content.</text>
  <text x="91" y="453" fill="#b8b4c8" font-family="Inter,Arial,sans-serif" font-size="28">Current SDKs · Server APIs · 999 page slots</text>
  <rect x="89" y="507" width="267" height="54" rx="12" fill="#7558f6"/>
  <text x="121" y="542" fill="#fff" font-family="Inter,Arial,sans-serif" font-size="21" font-weight="650">OpenIM Chat Docs</text>
</svg>
